<?xml version="1.0" encoding="utf-8"?>
<!-- Generator: Adobe Illustrator 22.0.1, SVG Export Plug-In . SVG Version: 6.00 Build 0)  -->
<svg version="1.1" xmlns="http://www.w3.org/2000/svg" xmlns:xlink="http://www.w3.org/1999/xlink" x="0px" y="0px"
	 viewBox="0 0 1612.7 369" style="enable-background:new 0 0 1612.7 369;" xml:space="preserve">
<style type="text/css">
	.st0{fill:#FFFFFF;}
	.st1{fill:#E30613;}
</style>
<g id="Calque_1">
</g>
<g id="Calque_2">
	<g>
		<path class="st0" d="M1548.9,186.8c-3.5-8.5-10.2-14.6-19.9-18.3l-0.3-0.1l-0.2-0.1c-1-0.3-25.4-7.1-43.4,14.6l-1.4,1.5l0-1.4
			l0.1-1.3v-61.1l0-0.6c0-16.9-10-31.4-24.4-38.1c12.1-6.9,20.3-19.9,20.3-34.8c0-22.1-18-40.1-40.1-40.1c-22.1,0-40.1,18-40.1,40.1
			c0,15.7,9.1,29.3,22.3,35.9c-11.7,6.3-20,17.9-21.9,31.5l-1.2-1.7c-12.6-16.8-34.9-34-70.3-26.1c-1.2-6.9-2.4-15.2-2.4-21.2
			l0.1-1.8c5.4-3.8,15.2-12.6,15.2-26.5v-0.5c-0.2-10.5-5.4-21-13.7-27.6c-6.2-4.9-17-10-33-6.4c-29.7,6.6-48,33.6-48,70.8l0,1.5
			l0.1,6.1c0.1,6.1,0.2,12.5,0.2,19c0,3.5,0,7.1-0.1,10.7c-0.9-1.4-1.6-2.8-2.6-4.2c-8.5-11.1-25.9-23.9-60.9-22.3
			c-1.5,0.1-36.3,2.2-55.5,40.7v-4.1l0-0.6c0-16.9-10-31.4-24.4-38.1C1115.8,75,1124,62,1124,47.1C1124,25,1106.1,7,1084,7
			c-22.1,0-40.1,18-40.1,40.1c0,15.7,9.1,29.3,22.3,35.9c-11,5.9-19.1,16.7-21.5,29.4c-12.7-16.6-34.9-33.6-70-25.8
			c-1.3-6.9-2.4-15.2-2.4-21.2l0.1-1.8c5.4-3.8,15.3-12.6,15.3-26.5l0-0.5c-0.2-10.3-5.9-21.1-14.9-28.2
			c-9.5-7.5-21.7-10.1-34.3-7.3c-12.1,2.7-40.8,13.7-44.8,57.5c-0.2,2-2.2,20.2-4,44.7c-13.3-13-33.4-23-62-16.6
			c-1.2-6.9-2.4-15.2-2.4-21.2l0.1-1.8c5.4-3.8,15.3-12.6,15.3-26.5v-0.5c-0.2-10.5-5.5-21-13.8-27.6c-6.2-4.9-17-10-33-6.4
			c-29.7,6.6-48,33.6-48,70.8l0,1.5l0.1,6.1c0.1,6.1,0.2,12.5,0.2,19c0,3.5,0,7.1-0.1,10.7c-0.9-1.4-1.6-2.8-2.6-4.2
			c-8.5-11.1-25.9-23.9-60.8-22.3c-1.6,0.1-36.4,2.2-55.5,40.7c-10.9-26.2-28.6-41.7-48.7-41.9c-15.7-0.1-27.7,4.4-33.8,7.3
			c-10.9-7.5-27.4-9.5-42.3-4.6c-16.3,5.4-27.1,17.7-29.9,33.7c-15.7-21.5-39.4-35.2-66-35.2c-30.2,0-56.7,17.7-71.9,44.5V87.5
			c0-0.5,0.1-1.1,0.1-2.2c0-10.6-3.3-49.3-49.8-68.4c-41.9-17.3-76.7,6.5-89.7,17.5c-13-11-47.7-34.8-89.7-17.5
			C58.7,36.1,55.4,74.7,55.4,85.3c0,1,0,1.7,0,2.2v121c0,25-7.8,46.4-21,57.3c-22.2,18.4-28.2,30.7-29.3,33.4
			c-1,1.9-5.2,9.9-5.2,21.6c0,8.2,2.1,18,8.9,28.4c15.1,23.2,42.9,21.5,55.5,17.3c76.1-29.5,78.5-103.2,78.5-103.9v-140l0-3.1
			c1.2-5.6,5.7-6.2,7.5-6.1c7.2,0.1,8.5,3.9,8.7,6.1l0,158.6h71.6V119.1c0.1-1.8,1.5-5.6,8.5-5.7c2,0,6.5,0.6,7.7,6.5l0,0.4l0,2.3
			v139.8c0,0.9,2.3,74.6,78.1,103.9c13,4.3,40.8,6.1,55.9-17.2c6.7-10.4,8.8-20.2,8.8-28.4c0-11.7-4.1-19.7-5.2-21.6
			c-1.1-2.7-7-15-29.2-33.4c-6.9-5.7-12.2-14.2-15.8-24.6c15.6,22.1,39.7,36.3,66.7,36.3c27.4,0,51.8-14.6,67.5-37.3
			c6.3,19.8,21.7,29.3,29.2,30.9l1,0.2c7,1.5,28.1,6.2,42.5-13.7c1.7-2.4,3.1-4.9,4.3-7.4c5.1,11.6,13.8,16.5,15.3,17.3
			c21.3,11.6,42.1-4.4,50.2-14.5l0.2-0.3l0.2-0.3c3.8-5.9,6.9-11.9,9.4-17.9c0.8,1.4,1.6,2.5,2.3,3.5c7.8,10.7,30.1,27.7,59.5,30.6
			c22.6,2.2,44.9-7.7,64-23.1c6,7.3,17.1,20.8,33.3,20.8c19.2,0,31.9-8.7,38.5-16.1l0.2,0.6c3.1,7.2,8.7,12.3,16.9,15.4
			c27.8,10.4,48-16.8,53.9-27.7l0.2,0.4c2.7,9.6,13.6,26.6,37.2,27.5c19.1,0.8,32.1-8.3,38.8-16.1l0.2,0.6
			c3.1,7.2,8.7,12.3,16.9,15.4c30.9,11.6,52.4-23.4,55.4-30.8c0-0.1,0.5-1.3,1.3-3.5c3.2,20.3,20.6,35.8,41.6,35.8
			c20.2,0,37-14.2,41.1-33.2c0.8,1.4,1.6,2.5,2.3,3.5c7.8,10.7,30.1,27.7,59.5,30.6c22.6,2.2,44.3-5.2,63.4-20.6
			c6,7.3,17.7,18.2,33.9,18.2c19.2,0,32-8.7,38.5-16.1l0.2,0.6c3.1,7.2,8.8,12.3,16.9,15.4c30.9,11.6,52.4-23.4,55.4-30.8
			c0.1-0.2,2.2-5.7,4.9-14.5c4.7,17,18.8,41.8,60.4,45.7c61.6,5.7,80.5-32.7,82.4-37.1C1548.3,221.9,1555.5,202.8,1548.9,186.8"/>
		<path class="st0" d="M1588.4,267.3L1588.4,267.3c-13.5-0.1-24.3-11-24.2-24.4c0-13.3,10.9-24.1,24.2-24.1c6.6,0,12.7,2.6,17.3,7.2
			c4.6,4.6,7.1,10.7,7,17.2C1612.6,256.5,1601.7,267.3,1588.4,267.3 M1588.5,222.8c-11.2,0-20.3,9-20.4,20.2
			c-0.1,11.2,9,20.3,20.2,20.4l0.1,2v-2c11.1,0,20.2-9.1,20.3-20.2c0-5.4-2-10.5-5.9-14.4C1599,225,1593.9,222.8,1588.5,222.8"/>
		<path class="st0" d="M1581.8,231.7h9.3c1.8,0,5,0.4,5,4.6c0,4.1-2.9,4.8-5.6,4.8h-8.7V231.7z M1581.8,244.3h9.1
			c4.5,0,4.9,2.7,4.9,4.9c0,1,0.1,5.2,0.6,7h4.6v-0.6c-1.1-0.7-1.3-1.2-1.4-2.8l-0.2-5c-0.1-3.9-1.7-4.6-3.3-5.2
			c1.8-1,3.9-2.6,3.9-6.6c0-5.9-4.6-7.5-9.1-7.5h-12.8v27.7h3.8V244.3z"/>
		<path class="st0" d="M1331.5,84.1L1331.5,84.1L1331.5,84.1z"/>
		<polygon class="st0" points="617.5,267.7 617.1,267.5 617,267.5 		"/>
		<path class="st0" d="M757.5,84.1L757.5,84.1L757.5,84.1z"/>
		<path class="st0" d="M406.3,215.9c-15.4,0-27.9-15.7-27.9-35.1s12.5-35.1,27.9-35.1c15.4,0,27.9,15.7,27.9,35.1
			S421.7,215.9,406.3,215.9"/>
		<path class="st0" d="M553.5,203.1c-0.5-2.4-1-5.1-1.5-7.2c-2.4-10.5-2.9-18.1-2.9-22.9c0-1.8,0.1-3.3,0.1-4.3l0.1-1.9
			c0-2.1,1-7.8,3.4-9.6c0.3-0.3,1.4-1,4.3-0.2c3.7,1,4.8,2.3,5.3,3.3c0.7,1.3,1,3.1,1,5.3C563.3,174.3,558.4,189.4,553.5,203.1"/>
		<path class="st0" d="M730.8,178.6c-6.7,8.8-13.8,13.6-20.9,14.4c-7.4,0.8-12.6-2.9-14-4.1c-1.8-1.5-4.6-7.2-4.7-14.3l0-0.3
			c0-2.1,0.4-5.1,1.6-8c4.3,3,10.6,6.3,19.1,7.9c8.6,1.6,17.1-0.4,24.1-4.4C734.4,173,732.8,176,730.8,178.6"/>
		<path class="st0" d="M832.2,198.3l-0.8,1.9c-0.6,1.3-1.2,2.9-1.8,4.4c-0.4-1.7-0.6-3.4-1.1-4.9c-3-9.6-5.1-20.6-5.1-29.4
			c0-5.9,0.9-10.7,3-13.6c0.9-1.3,2.5-2.8,6.4-2.8c4.3,0,5.4,1.7,5.9,2.4c1.3,1.9,1.8,4.8,1.8,8.4
			C840.5,173.8,836.8,187.2,832.2,198.3"/>
		<path class="st0" d="M979.3,198.3l-0.8,1.9c-0.5,1.3-1.2,2.9-1.8,4.4c-0.4-1.7-0.6-3.4-1.1-4.9c-3-9.6-5-20.6-5-29.4
			c0-5.9,0.9-10.7,3-13.6c0.9-1.3,2.5-2.8,6.4-2.8c4.3,0,5.4,1.7,5.9,2.4c1.3,1.9,1.8,4.8,1.8,8.4
			C987.6,173.8,984,187.2,979.3,198.3"/>
		<path class="st0" d="M1231.9,178.6c-6.7,8.8-13.7,13.6-20.9,14.4c-7.4,0.8-12.6-2.9-14-4.1c-1.8-1.5-4.6-7.2-4.7-14.3v-0.3
			c0-2.1,0.4-5.1,1.5-8c4.3,3,10.6,6.3,19.1,7.9c8.6,1.6,17.1-0.4,24.1-4.4C1235.5,173,1233.9,176,1231.9,178.6"/>
		<path class="st0" d="M1333.2,198.3l-0.8,1.9c-0.6,1.3-1.2,2.9-1.8,4.4c-0.4-1.7-0.6-3.4-1.1-4.9c-3-9.6-5-20.6-5-29.4
			c0-5.9,0.9-10.7,3-13.6c0.9-1.3,2.5-2.8,6.4-2.8c4.3,0,5.4,1.7,5.9,2.4c1.3,1.9,1.8,4.8,1.8,8.4
			C1341.6,173.8,1337.9,187.2,1333.2,198.3"/>
		<path class="st0" d="M434.2,180.8c0,19.4-12.5,35.1-27.9,35.1c-15.4,0-27.9-15.7-27.9-35.1c0-19.4,12.5-35.1,27.9-35.1
			C421.7,145.7,434.2,161.4,434.2,180.8 M406.3,159.1c-7.8,0-14.1,9.7-14.1,21.7c0,12,6.3,21.7,14.1,21.7c7.8,0,14.1-9.7,14.1-21.7
			C420.4,168.8,414.1,159.1,406.3,159.1"/>
		<path class="st1" d="M1413.5,47.1c0-14.5,11.8-26.2,26.3-26.2c14.5,0,26.2,11.8,26.2,26.2c0,14.5-11.8,26.2-26.2,26.2
			C1425.3,73.3,1413.5,61.6,1413.5,47.1"/>
		<path class="st1" d="M1463.6,252.8c-50.7-4.7-50.3-46-50.2-47.7v-85.4c0.2-15.4,12.9-27.9,28.4-27.9c15.5,0,28,12.5,28.2,27.9
			v61.9l0,0.8c0,1.4-0.1,2.9-0.1,4.4c0,5.9,1,12.6,7,15c7,2.7,13.5-3.6,18.9-10.1c11.7-14,26.9-10.6,28.6-10.2
			c5.9,2.3,9.8,5.7,11.8,10.5c1.2,2.9,1.6,6,1.6,9.3c0,9.3-3.9,18.8-5.5,22.2C1530.6,227.3,1515.6,257.6,1463.6,252.8"/>
		<path class="st1" d="M1212.5,206.8c11-1.2,21.3-7.9,30.4-19.8c19.1-25,18.5-68.1,17.9-106.2l-0.1-6c-0.4-31.4,13.5-53.3,37.1-58.6
			c8.5-1.9,15.9-0.6,21.4,3.8c5.1,4,8.4,10.5,8.5,16.9c0.2,10.4-11.1,16.6-11.3,16.7l-2.9,1.6l-0.6,3.3c-2.2,12,3,35.5,3.5,38.1
			l1.7,7.3l7.7-2.3c25.5-7.8,46.4-1.2,62,19.6c25.1,33.3-3.3,108.5-3.6,109.2c-0.1,0.3-15.6,31.2-37.7,23c-4.5-1.7-7.5-4.3-9-7.8
			c-4.7-10.9,3.3-29.7,7.6-39.7l0.8-2c3.8-9,15.5-39.6,5.3-55c-2.6-3.9-7.7-8.6-17.4-8.6c-7.4,0-13.5,2.9-17.5,8.4
			c-11.6,15.8-2,48.9,0,55.3c3.8,12,2.6,30.1-0.1,34.7c-2.9,4.8-12.9,14-30.1,14c-15.7,0-26.6-17.6-26.7-17.8l-4.4-7.3l-6.2,5.8
			c-17.7,16.4-37.4,23.7-58.6,21.7c-23.4-2.3-43.1-15.9-49.6-24.9c-4.5-6.2-12.3-23.8-12.3-47.7c0-14.2,2.8-30.7,10.7-48.4
			c15.2-33.9,44-35.9,45.3-36c23.3-1.1,39.8,4.6,49.2,16.9c9.3,12.2,8.6,27.2,7.3,31.3c-2.7,8.4-14.3,16.5-25.2,14.5
			c-11.6-2.2-17.5-8.7-17.7-8.9l-4.6-5.1l-5.2,4.5c-6.3,5.4-9.6,13.9-9.5,23.8c0.1,10.3,3.9,20,9.7,24.8
			C1194.7,205.1,1203.8,207.8,1212.5,206.8"/>
		<path class="st1" d="M1057.7,47.1c0-14.5,11.8-26.2,26.3-26.2c14.5,0,26.2,11.8,26.2,26.2c0,14.5-11.8,26.2-26.2,26.2
			C1069.5,73.3,1057.7,61.6,1057.7,47.1"/>
		<path class="st1" d="M1057.7,225.7l-0.1-105.9c0.2-15.4,12.9-28,28.4-28c15.5,0,28,12.5,28.2,27.9v106h0
			c0,15.6-12.7,28.3-28.2,28.3C1070.4,253.9,1057.7,241.2,1057.7,225.7"/>
		<path class="st1" d="M406.3,145.7c-15.4,0-27.9,15.7-27.9,35.1c0,19.4,12.5,35.1,27.9,35.1c15.4,0,27.9-15.7,27.9-35.1
			C434.2,161.4,421.7,145.7,406.3,145.7 M478,180.8c0,46-32.1,83.3-71.7,83.3c-39.6,0-71.7-37.3-71.7-83.3c0-46,32.1-83.3,71.7-83.3
			C445.9,97.5,478,134.8,478,180.8"/>
		<path class="st1" d="M200.4,49.9c1.4-1.5,35.8-36.6,78.5-19.1c43.3,17.9,40.6,54.2,40.5,55.8l0,0.3l0,121
			c-0.1,30.1,9.5,55.5,26.5,69.5c20.5,16.9,25,27.5,25,27.6l0.2,0.5l0.3,0.6c0.4,0.6,9.1,16.2-3,34.8
			c-12.5,19.2-37.1,11.5-38.2,11.2c-65.8-25.5-68-87.3-68.1-89.9V122.6c0-4.7,0-7.1-2.3-9.5l2,3.8c-3.1-15.5-16.4-18.9-23-18.6
			c-16.4,0.2-22.9,12.4-23.1,20.5V263h-41.4v-144c-0.3-8.4-6.8-20.5-23.4-20.8c-6.3-0.3-19.6,3.1-22.7,18.6l2-3.8
			c-2.3,2.4-2.3,4.7-2.3,9.5v139.8c-0.1,2.5-2.3,64.2-68.5,89.9c-0.7,0.2-25.3,7.9-37.8-11.3c-12.1-18.6-3.4-34.2-3-34.8l0.3-0.4
			l0.3-0.6c0.1-0.1,4.6-10.7,25-27.6c17-14,26.6-39.4,26.5-69.5V87l0-0.4c-0.1-1.5-2.9-37.9,40.4-55.8
			c42.7-17.6,77.1,17.5,78.5,19.1l5.4,5.7L200.4,49.9z"/>
		<path class="st1" d="M483.6,142.1c0,0,14.2,36.5,0.5,75.8l0-0.2c0.4,4,0.8,7.7,1.2,10.8c2.8,21,17.7,28.4,20.5,29l1.1,0.2
			c10,2.2,20.3,2.7,28.3-8.3c10.4-14.4,7.3-32.8,3.3-50.5c-3.8-16.4-3.3-26.6-3.1-31l0-1.3c0-0.6,0.1-14,8.8-20.6
			c3.1-2.4,8.5-4.7,16.4-2.6c6.7,1.9,11.3,5.3,13.9,10.4c5,9.8,2.6,24.7-9.2,57c-12.6,34.4,6.1,43.9,7.3,44.5
			c15.6,8.6,30.5-8.3,32.5-10.6c13.7-21.5,17.5-45.2,17.5-65c0-24.2-5.7-42.3-5.8-42.6c-8.4-25.2-22.8-40.3-38.7-40.5
			c-18.1-0.2-30.5,7.4-30.6,7.5l-4.6,2.9l-3.9-3.8c-6.7-6.5-20.7-8.5-32.5-4.6c-6.6,2.2-18.2,8.1-20.6,23.2
			C484.8,128,484.1,134.8,483.6,142.1L483.6,142.1z"/>
		<path class="st1" d="M632.9,146.5c0,0,7.3,32-1,67.3c2.4,7.6,5.4,13.2,7.5,16.2c6.5,9,26.2,22.7,49.6,24.9
			c21.2,2.1,40.9-8,58.6-24.4l6.2-5.8l4.4,7.3c0.1,0.2,10.7,20.4,26.7,20.6c17.2,0.1,27.2-9.2,30.1-14c2.7-4.6,3.9-22.7,0.1-34.7
			c-2-6.5-11.6-39.5,0-55.3c4.1-5.5,10.1-8.4,17.6-8.4c9.7,0,14.8,4.7,17.4,8.6c10.2,15.4-1.5,46-5.3,55l-0.8,2
			c-4.3,10.1-12.3,28.8-7.6,39.7c1.5,3.6,4.5,6.1,9,7.8c22.1,8.3,37.6-22.7,37.7-23c0.3-0.7,28.7-75.9,3.6-109.2
			c-15.6-20.8-36.5-27.4-62-19.6l-7.8,2.3l-1.6-7.3c-0.6-2.6-5.7-26.1-3.6-38.1l0.6-3.3l2.9-1.6c0.1-0.1,11.4-6.3,11.3-16.7
			c-0.1-6.4-3.3-12.9-8.5-16.9c-5.5-4.4-12.9-5.7-21.4-3.8c-23.6,5.3-37.5,27.2-37.1,58.6l0.1,6c0.6,38.1,1.2,81.3-17.9,106.2
			c-9.1,11.9-19.3,18.5-30.4,19.8c-8.7,1-17.8-1.7-24.3-7.2c-5.7-4.8-9.5-14.5-9.6-24.8c-0.1-9.9,3.3-18.3,9.5-23.8l5.2-4.4l4.5,5.1
			c0.2,0.3,6.1,6.7,17.7,8.9c10.9,2.1,22.5-6.1,25.2-14.5c1.3-4.1,2-19.2-7.3-31.3c-9.4-12.3-26-18-49.2-16.9
			c-1.3,0.1-30.1,2.1-45.3,36C635.9,138.2,634.3,142.4,632.9,146.5"/>
		<path class="st1" d="M903,214.8c18-62.1-0.5-95.1-0.5-95.1c1.4-24.2,3.3-46.2,4.8-59.8c3-33.6,22.7-42.8,34.1-45.4
			c10.9-2.4,18.4,1.2,22.8,4.7c5.7,4.5,9.5,11.4,9.6,17.6c0.2,10.4-11.1,16.6-11.2,16.7l-2.9,1.6l-0.6,3.3
			c-2.2,12,2.9,35.5,3.5,38.1l1.6,7.3l7.7-2.3c25.5-7.8,46.4-1.1,62,19.6c25,33.3-3.3,108.5-3.6,109.2c-0.1,0.3-15.6,31.2-37.7,23
			c-4.5-1.7-7.5-4.3-9-7.8c-4.7-10.9,3.3-29.7,7.6-39.7l0.8-2c3.8-9,15.5-39.6,5.3-55c-2.6-3.9-7.7-8.6-17.4-8.6
			c-7.4,0-13.5,2.9-17.5,8.4c-11.6,15.8-2,48.9,0,55.3c3.8,12,2.6,30.1-0.1,34.7c-3,5.2-13.2,14.7-29.9,14
			c-19.8-0.8-24.5-17.3-24.6-18l-0.1-0.5l-0.2-0.5C905.4,229,904,222.5,903,214.8L903,214.8z"/>
	</g>
</g>
</svg>
